<svg width="40" height="40" viewBox="0 0 40 40" fill="none" xmlns="http://www.w3.org/2000/svg">
<path d="M37.793 0H2.20701C0.988113 0 0 0.988113 0 2.20701V37.793C0 39.0119 0.988113 40 2.20701 40H37.793C39.0119 40 40 39.0119 40 37.793V2.20701C40 0.988113 39.0119 0 37.793 0Z" fill="#3D5A98"/>
<path d="M25.343 39.6795V23.9254H30.8702L31.6968 17.786H25.343V13.8673C25.343 12.0901 25.8605 10.8767 28.5235 10.8767H31.9232V5.37665C30.2769 5.21284 28.6225 5.13481 26.9674 5.1429C22.0727 5.1429 18.7017 7.99603 18.7017 13.2588V17.786H13.1746V23.9254H18.7017V39.6795H25.343Z" fill="white"/>
</svg>
