<svg width="40" height="40" viewBox="0 0 40 40" fill="none" xmlns="http://www.w3.org/2000/svg">
<path d="M30.6239 0H9.37387C4.1962 0 -0.00112915 4.19733 -0.00112915 9.375V30.625C-0.00112915 35.8027 4.1962 40 9.37387 40H30.6239C35.8015 40 39.9989 35.8027 39.9989 30.625V9.375C39.9989 4.19733 35.8015 0 30.6239 0Z" fill="url(#paint0_radial_1259_46)"/>
<path d="M30.6239 0H9.37387C4.1962 0 -0.00112915 4.19733 -0.00112915 9.375V30.625C-0.00112915 35.8027 4.1962 40 9.37387 40H30.6239C35.8015 40 39.9989 35.8027 39.9989 30.625V9.375C39.9989 4.19733 35.8015 0 30.6239 0Z" fill="url(#paint1_radial_1259_46)"/>
<path d="M20.0003 4.375C15.7568 4.375 15.2242 4.39359 13.5576 4.46938C11.8942 4.54563 10.7587 4.80891 9.76528 5.19531C8.73746 5.59438 7.86575 6.12828 6.99731 6.99703C6.12809 7.86562 5.59418 8.73734 5.19387 9.76469C4.80637 10.7584 4.54278 11.8944 4.46793 13.557C4.3934 15.2238 4.37387 15.7566 4.37387 20.0002C4.37387 24.2438 4.39262 24.7747 4.46825 26.4412C4.54481 28.1047 4.80809 29.2402 5.19418 30.2336C5.59356 31.2614 6.12746 32.1331 6.99621 33.0016C7.8645 33.8708 8.73621 34.4059 9.76325 34.805C10.7575 35.1914 11.8931 35.4547 13.5562 35.5309C15.2229 35.6067 15.7551 35.6253 19.9984 35.6253C24.2423 35.6253 24.7732 35.6067 26.4398 35.5309C28.1032 35.4547 29.24 35.1914 30.2342 34.805C31.2615 34.4059 32.132 33.8708 33.0001 33.0016C33.8693 32.1331 34.4031 31.2614 34.8036 30.2341C35.1876 29.2402 35.4514 28.1044 35.5295 26.4416C35.6043 24.775 35.6239 24.2438 35.6239 20.0002C35.6239 15.7566 35.6043 15.2241 35.5295 13.5573C35.4514 11.8939 35.1876 10.7586 34.8036 9.76516C34.4031 8.73734 33.8693 7.86562 33.0001 6.99703C32.1311 6.12797 31.2618 5.59406 30.2332 5.19547C29.2372 4.80891 28.1011 4.54547 26.4376 4.46938C24.7709 4.39359 24.2403 4.375 19.9954 4.375H20.0003ZM18.5986 7.19078C19.0147 7.19016 19.4789 7.19078 20.0003 7.19078C24.1723 7.19078 24.6667 7.20578 26.3142 7.28063C27.8376 7.35031 28.6645 7.60484 29.2153 7.81875C29.9445 8.10188 30.4643 8.44047 31.0109 8.9875C31.5578 9.53438 31.8962 10.0552 32.1801 10.7844C32.394 11.3344 32.6489 12.1613 32.7182 13.6847C32.7931 15.3319 32.8093 15.8266 32.8093 19.9966C32.8093 24.1666 32.7931 24.6614 32.7182 26.3084C32.6486 27.8319 32.394 28.6588 32.1801 29.2089C31.897 29.9381 31.5578 30.4573 31.0109 31.0039C30.464 31.5508 29.9448 31.8892 29.2153 32.1725C28.6651 32.3873 27.8376 32.6413 26.3142 32.7109C24.667 32.7858 24.1723 32.802 20.0003 32.802C15.8281 32.802 15.3336 32.7858 13.6865 32.7109C12.1631 32.6406 11.3362 32.3861 10.785 32.1722C10.0559 31.8889 9.53496 31.5505 8.98809 31.0036C8.44121 30.4567 8.10278 29.9372 7.81887 29.2077C7.60496 28.6575 7.35012 27.8306 7.28075 26.3072C7.2059 24.66 7.1909 24.1653 7.1909 19.9927C7.1909 15.82 7.2059 15.328 7.28075 13.6808C7.35043 12.1573 7.60496 11.3305 7.81887 10.7797C8.10215 10.0505 8.44121 9.52969 8.98825 8.98281C9.53528 8.43594 10.0559 8.09734 10.7851 7.81359C11.3359 7.59875 12.1631 7.34484 13.6865 7.27484C15.1279 7.20969 15.6865 7.19016 18.5986 7.18687V7.19078ZM28.3409 9.78516C27.3057 9.78516 26.4659 10.6242 26.4659 11.6595C26.4659 12.6947 27.3057 13.5345 28.3409 13.5345C29.3761 13.5345 30.2159 12.6947 30.2159 11.6595C30.2159 10.6244 29.3761 9.78453 28.3409 9.78453V9.78516ZM20.0003 11.9759C15.569 11.9759 11.9762 15.5688 11.9762 20.0002C11.9762 24.4316 15.569 28.0227 20.0003 28.0227C24.4317 28.0227 28.0232 24.4316 28.0232 20.0002C28.0232 15.5689 24.4314 11.9759 20 11.9759H20.0003ZM20.0003 14.7917C22.8767 14.7917 25.2087 17.1234 25.2087 20.0002C25.2087 22.8766 22.8767 25.2086 20.0003 25.2086C17.1239 25.2086 14.792 22.8766 14.792 20.0002C14.792 17.1234 17.1237 14.7917 20.0003 14.7917Z" fill="white"/>
<defs>
<radialGradient id="paint0_radial_1259_46" cx="0" cy="0" r="1" gradientUnits="userSpaceOnUse" gradientTransform="translate(10.6239 43.0808) rotate(-90) scale(39.643 36.8711)">
<stop stop-color="#FFDD55"/>
<stop offset="0.1" stop-color="#FFDD55"/>
<stop offset="0.5" stop-color="#FF543E"/>
<stop offset="1" stop-color="#C837AB"/>
</radialGradient>
<radialGradient id="paint1_radial_1259_46" cx="0" cy="0" r="1" gradientUnits="userSpaceOnUse" gradientTransform="translate(-6.70129 2.88141) rotate(78.681) scale(17.7206 73.045)">
<stop stop-color="#3771C8"/>
<stop offset="0.128" stop-color="#3771C8"/>
<stop offset="1" stop-color="#6600FF" stop-opacity="0"/>
</radialGradient>
</defs>
</svg>
