<svg width="40" height="40" viewBox="0 0 40 40" fill="none" xmlns="http://www.w3.org/2000/svg">
<path d="M29.6437 14.4392C32.5622 16.2845 36.1375 17.3702 39.9989 17.3702V10.7979C39.268 10.7982 38.5391 10.7307 37.8242 10.5966V15.77C33.9631 15.77 30.3882 14.6843 27.4692 12.8392V26.2515C27.4692 32.9612 21.3198 38.3999 13.7348 38.3999C10.9046 38.3999 8.27402 37.6431 6.08887 36.3451C8.58293 38.6008 12.0611 40.0001 15.9089 40.0001C23.4945 40.0001 29.644 34.5613 29.644 27.8514V14.4392H29.6437ZM32.3265 7.80849C30.835 6.36722 29.8556 4.50462 29.6437 2.44539V1.6001H27.5829C28.1017 4.21728 29.8712 6.45323 32.3265 7.80849ZM10.8864 31.1965C10.053 30.2302 9.60253 29.0478 9.60465 27.8322C9.60465 24.7635 12.4173 22.2754 15.8875 22.2754C16.5341 22.2751 17.1769 22.3629 17.7932 22.5358V15.8164C17.0729 15.7292 16.3461 15.692 15.6195 15.7057V20.9356C15.0028 20.7627 14.3597 20.6749 13.7128 20.6754C10.2428 20.6754 7.43027 23.1633 7.43027 26.2323C7.43027 28.4025 8.83605 30.2812 10.8864 31.1965Z" fill="#FF004F"/>
<path d="M27.4692 12.839C30.3885 14.6842 33.963 15.7698 37.8242 15.7698V10.5964C35.6689 10.1903 33.761 9.19417 32.3264 7.80849C29.871 6.45309 28.1018 4.21714 27.583 1.6001H22.17V27.8511C22.1577 30.9115 19.3499 33.3894 15.8872 33.3894C13.8469 33.3894 12.0341 32.5292 10.8861 31.1964C8.83612 30.2812 7.43019 28.4023 7.43019 26.2325C7.43019 23.1637 10.2427 20.6755 13.7127 20.6755C14.3775 20.6755 15.0183 20.767 15.6194 20.9357V15.7058C8.16753 15.842 2.17456 21.2276 2.17456 27.8513C2.17456 31.1578 3.6669 34.1552 6.08909 36.3454C8.27425 37.6431 10.9047 38.4002 13.735 38.4002C21.3202 38.4002 27.4694 32.9611 27.4694 26.2515L27.4692 12.839Z" fill="black"/>
<path d="M37.8242 10.5962V9.19768C35.8806 9.20017 33.9755 8.71874 32.3264 7.8084C33.7861 9.22189 35.7082 10.1966 37.8242 10.5965M27.5828 1.59987C27.5334 1.34981 27.4955 1.09807 27.4691 0.845291V0H19.995V26.2513C19.9831 29.3114 17.1753 31.7893 13.7125 31.7893C12.7308 31.7906 11.7626 31.5876 10.8859 31.1965C12.0339 32.5291 13.8467 33.3892 15.887 33.3892C19.3495 33.3892 22.1577 30.9116 22.1698 27.8512V1.60001L27.5828 1.59987ZM15.6197 15.7056V14.2165C14.9951 14.141 14.3655 14.1032 13.7352 14.1034C6.14922 14.1034 0 19.5424 0 26.2513C0 30.4576 2.41672 34.1645 6.08922 36.345C3.66703 34.155 2.17469 31.1574 2.17469 27.8511C2.17469 21.2276 8.1675 15.8418 15.6197 15.7056Z" fill="#00F2EA"/>
</svg>
