<svg width="38" height="38" viewBox="0 0 38 38" fill="none" xmlns="http://www.w3.org/2000/svg">
<path d="M19.7267 2.62914C19.516 2.46486 19.2565 2.37564 18.9893 2.37564C18.7221 2.37564 18.4626 2.46486 18.2519 2.62914L1.1875 15.9351L2.66356 17.8018L4.75 16.1749V30.875C4.75126 31.5045 5.00188 32.1079 5.44701 32.553C5.89214 32.9981 6.4955 33.2488 7.125 33.25H30.875C31.5045 33.2488 32.1079 32.9981 32.553 32.553C32.9981 32.1079 33.2487 31.5045 33.25 30.875V16.1856L35.3364 17.8125L36.8125 15.9458L19.7267 2.62914ZM21.375 30.875H16.625V21.375H21.375V30.875ZM23.75 30.875V21.375C23.75 20.7451 23.4998 20.141 23.0544 19.6956C22.609 19.2502 22.0049 19 21.375 19H16.625C15.9951 19 15.391 19.2502 14.9456 19.6956C14.5002 20.141 14.25 20.7451 14.25 21.375V30.875H7.125V14.3236L19 5.07301L30.875 14.3355V30.875H23.75Z" fill="#3BB77E"/>
</svg>
